<?xml version="1.0" encoding="utf-8"?>
<svg width="51" height="50" viewBox="0 0 51 50" fill="none" xmlns="http://www.w3.org/2000/svg">
<g clip-path="url(#clip0_1899_4447)">
<path d="M41.3888 12.7317C41.2143 12.7317 41.0392 12.6699 40.899 12.5441C39.4844 11.2752 37.6576 10.5764 35.7553 10.5764C35.1232 10.5764 34.4919 10.6542 33.879 10.8074C33.4388 10.9293 32.9665 10.5692 32.9672 10.1127C32.913 7.79189 31.968 5.61836 30.3062 3.99277C28.6418 2.36455 26.4426 1.46777 24.1138 1.46777C20.2539 1.46777 16.8658 3.93447 15.6831 7.60586C15.5737 7.94531 15.2359 8.15654 14.8831 8.10762C14.5424 8.06006 14.2057 8.03594 13.8824 8.03594C12.1615 8.03594 10.4832 8.66035 9.15675 9.79414C8.84874 10.0575 8.38546 10.0212 8.12208 9.71309C7.8587 9.40498 7.89503 8.9418 8.20314 8.67842C9.79523 7.31768 11.8122 6.56816 13.8825 6.56816C14.0807 6.56816 14.2824 6.57559 14.4864 6.59033C16.0191 2.62422 19.8154 0 24.1138 0C26.8285 0 29.3923 1.04541 31.3325 2.94355C33.0614 4.63496 34.1248 6.83506 34.3783 9.2124C34.8337 9.14355 35.2944 9.10869 35.7552 9.10869C38.0197 9.10869 40.1945 9.94082 41.8789 11.4516C42.1806 11.7222 42.2059 12.1861 41.9352 12.4879C41.7904 12.6494 41.5901 12.7317 41.3888 12.7317V12.7317Z" fill="#80C9A7"/>
<path d="M43.4199 32.8758H20.8574C20.4521 32.8758 20.1235 32.5473 20.1235 32.1419C20.1235 31.7365 20.4521 31.408 20.8574 31.408H43.4199C46.5145 31.408 49.0323 28.8903 49.0323 25.7956C49.0323 22.9232 46.8818 20.5249 44.0301 20.2169C43.6279 20.1817 43.3171 19.7818 43.3824 19.3834C43.4353 19.014 43.462 18.6437 43.462 18.283C43.462 17.0161 43.1482 15.7604 42.5547 14.6517C42.3635 14.2942 42.498 13.8496 42.8554 13.6583C43.2125 13.467 43.6574 13.6017 43.8487 13.9589C44.556 15.2801 44.9298 16.7753 44.9298 18.283C44.9298 18.478 44.9232 18.6752 44.9103 18.8731C48.1435 19.5614 50.5 22.4189 50.5 25.7957C50.5 29.6996 47.3238 32.8758 43.4199 32.8758Z" fill="#80C9A7"/>
<path d="M17.9221 32.8756H8.49736C4.0876 32.8756 0.5 29.288 0.5 24.8781C0.5 21.7505 2.34385 18.9085 5.1502 17.6132C5.03027 17.0067 4.96973 16.3901 4.96973 15.7725C4.96973 14.1563 5.38135 12.5661 6.16006 11.174C6.35791 10.8203 6.80498 10.6941 7.15879 10.8918C7.5125 11.0897 7.63887 11.5369 7.44092 11.8905C6.78437 13.0643 6.4374 14.4066 6.4374 15.7725C6.4374 16.4767 6.53066 17.1799 6.71455 17.8624C6.81357 18.2299 6.61523 18.6121 6.25762 18.7427C3.6917 19.6797 1.96768 22.1453 1.96768 24.8782C1.96768 28.4787 4.89687 31.4079 8.49736 31.4079H17.922C18.3272 31.4079 18.6559 31.7364 18.6559 32.1418C18.6559 32.5471 18.3273 32.8756 17.9221 32.8756Z" fill="#80C9A7"/>
<path d="M23.7388 27.7024C22.314 27.7024 20.9135 27.3281 19.6887 26.62C19.3379 26.4172 19.2179 25.9683 19.4206 25.6174L21.77 21.5528C21.9607 21.2073 22.4358 21.0805 22.7733 21.285C23.0653 21.4544 23.3991 21.5438 23.7387 21.5438C24.0783 21.5438 24.4116 21.4545 24.7024 21.2855C25.0399 21.0803 25.5155 21.207 25.7064 21.5527L28.0568 25.6173C28.261 25.9548 28.1339 26.4297 27.7886 26.6201C26.5629 27.3282 25.1624 27.7024 23.7388 27.7024V27.7024ZM21.0792 25.6808C21.9124 26.0447 22.8192 26.2347 23.7387 26.2347C24.6576 26.2347 25.5642 26.0447 26.3979 25.6807L24.7632 22.8535C24.1038 23.062 23.3736 23.062 22.7135 22.8533L21.0792 25.6808ZM31.1034 20.3488H26.4055C26.0002 20.3488 25.6716 20.0203 25.6716 19.6149C25.6716 18.9283 25.3016 18.2887 24.7061 17.9459C24.36 17.7557 24.2325 17.2804 24.4368 16.9426L26.7862 12.878C26.9891 12.5271 27.4379 12.4071 27.7887 12.6097C30.2859 14.0526 31.8372 16.7368 31.8372 19.6149C31.8372 20.0203 31.5087 20.3488 31.1034 20.3488V20.3488ZM27.0585 18.881H30.3283C30.1222 17.0518 29.1542 15.3777 27.6692 14.2831L26.0348 17.1107C26.5485 17.5813 26.9069 18.2012 27.0585 18.881ZM21.072 20.3488H16.374C15.9687 20.3488 15.6401 20.0203 15.6401 19.6149C15.6401 16.7368 17.1914 14.0526 19.6887 12.6097C20.0396 12.4071 20.4884 12.5271 20.6911 12.878L23.0405 16.9426C23.2448 17.2804 23.1173 17.7557 22.7713 17.9459C22.1757 18.2887 21.8058 18.9283 21.8058 19.6149C21.8059 20.0203 21.4773 20.3488 21.072 20.3488V20.3488ZM17.1492 18.881H20.419C20.5706 18.2011 20.929 17.5813 21.4427 17.1107L19.8082 14.2831C18.3233 15.3778 17.3553 17.0519 17.1492 18.881V18.881Z" fill="#80C9A7"/>
<path d="M18.3155 50.0002C16.7466 50.0002 15.4702 48.7238 15.4702 47.1549C15.4702 44.7193 17.8242 43.2087 17.9244 43.1455C18.1634 42.9951 18.4676 42.9951 18.7066 43.1455C18.8068 43.2087 21.1609 44.7193 21.1609 47.1549C21.1608 48.7238 19.8845 50.0002 18.3155 50.0002ZM18.3154 44.6855C17.7944 45.1263 16.9379 46.0231 16.9379 47.1549C16.9379 47.9145 17.5559 48.5325 18.3155 48.5325C19.0752 48.5325 19.6932 47.9145 19.6932 47.1549C19.6932 46.0235 18.8371 45.1269 18.3154 44.6855V44.6855Z" fill="#80C9A7"/>
<path d="M32.6848 50.0002C31.1158 50.0002 29.8394 48.7238 29.8394 47.1549C29.8394 44.7193 32.1935 43.2087 32.2937 43.1455C32.5327 42.9951 32.8369 42.9951 33.0759 43.1455C33.1761 43.2087 35.5301 44.7193 35.5301 47.1549C35.5301 48.7238 34.2536 50.0002 32.6848 50.0002ZM32.6847 44.6855C32.1637 45.1263 31.3071 46.0231 31.3071 47.1549C31.3071 47.9146 31.9251 48.5325 32.6848 48.5325C33.4443 48.5325 34.0624 47.9146 34.0624 47.1549C34.0624 46.0235 33.2063 45.1269 32.6847 44.6855V44.6855Z" fill="#80C9A7"/>
<path d="M11.131 41.8983C9.56201 41.8983 8.28564 40.6219 8.28564 39.053C8.28564 36.6174 10.6396 35.1067 10.7398 35.0436C10.9788 34.893 11.2831 34.893 11.5221 35.0436C11.6223 35.1067 13.9764 36.6174 13.9764 39.053C13.9764 40.6219 12.6999 41.8983 11.131 41.8983V41.8983ZM11.1309 36.5836C10.6099 37.0245 9.75332 37.9213 9.75332 39.0531C9.75332 39.8127 10.3713 40.4307 11.131 40.4307C11.8906 40.4307 12.5086 39.8127 12.5086 39.0531C12.5086 37.9216 11.6526 37.0249 11.1309 36.5836V36.5836Z" fill="#80C9A7"/>
<path d="M25.5001 41.8983C23.9312 41.8983 22.6548 40.6219 22.6548 39.053C22.6548 36.6174 25.0088 35.1067 25.109 35.0436C25.3479 34.893 25.6522 34.893 25.8912 35.0436C25.9914 35.1067 28.3454 36.6174 28.3454 39.053C28.3454 40.6219 27.069 41.8983 25.5001 41.8983V41.8983ZM25.5 36.5836C24.979 37.0245 24.1225 37.9213 24.1225 39.0531C24.1225 39.8127 24.7404 40.4307 25.5001 40.4307C26.2597 40.4307 26.8777 39.8127 26.8777 39.0531C26.8777 37.9216 26.0217 37.0249 25.5 36.5836V36.5836Z" fill="#80C9A7"/>
<path d="M39.8692 41.8983C38.3004 41.8983 37.0239 40.6219 37.0239 39.053C37.0239 36.6174 39.3779 35.1067 39.4781 35.0436C39.7171 34.893 40.0214 34.893 40.2604 35.0436C40.3605 35.1067 42.7146 36.6174 42.7146 39.053C42.7146 40.6219 41.4382 41.8983 39.8692 41.8983ZM39.8691 36.5836C39.3481 37.0245 38.4916 37.9213 38.4916 39.0531C38.4916 39.8127 39.1096 40.4307 39.8692 40.4307C40.6289 40.4307 41.2469 39.8127 41.2469 39.0531C41.247 37.9216 40.3909 37.0249 39.8691 36.5836V36.5836Z" fill="#80C9A7"/>
</g>
<defs>
<clipPath id="clip0_1899_4447">
<rect width="50" height="50" fill="white" transform="translate(0.5)"/>
</clipPath>
</defs>
</svg>
