<svg width="145" height="145" viewBox="0 0 145 145" fill="none" xmlns="http://www.w3.org/2000/svg">
<path d="M131.285 108.75L82.9521 24.1666C81.8982 22.307 80.3699 20.7603 78.5231 19.6841C76.6763 18.608 74.5771 18.041 72.4396 18.041C70.3021 18.041 68.2029 18.608 66.3561 19.6841C64.5093 20.7603 62.981 22.307 61.9271 24.1666L13.5938 108.75C12.5285 110.595 11.9699 112.689 11.9746 114.819C11.9794 116.949 12.5472 119.04 13.6206 120.881C14.694 122.721 16.2349 124.244 18.0869 125.297C19.939 126.35 22.0364 126.894 24.1667 126.875H120.833C122.953 126.873 125.036 126.313 126.871 125.251C128.706 124.19 130.229 122.664 131.289 120.828C132.348 118.991 132.905 116.909 132.904 114.789C132.904 112.669 132.345 110.586 131.285 108.75Z" stroke="#6690FF" stroke-width="8" stroke-linecap="round" stroke-linejoin="round"/>
<path d="M72.5 54.375V78.5417" stroke="#6690FF" stroke-width="8" stroke-linecap="round" stroke-linejoin="round"/>
<path d="M72.5 102.708H72.5449" stroke="#6690FF" stroke-width="8" stroke-linecap="round" stroke-linejoin="round"/>
</svg>
