<?xml version="1.0" encoding="utf-8"?>
<svg width="50" height="50" viewBox="0 0 50 50" fill="none" xmlns="http://www.w3.org/2000/svg">
<g clip-path="url(#clip0_1899_2106)">
<path d="M41.3087 44.0442C40.9042 44.0442 40.5762 44.3721 40.5762 44.7766V46.8263C40.5762 47.7686 39.8096 48.5353 38.8673 48.5353C37.925 48.5353 37.1583 47.7686 37.1583 46.8263V40.674C37.1583 38.924 35.7345 37.5002 33.9845 37.5002C32.2345 37.5002 30.8106 38.924 30.8106 40.674V42.0412C30.8106 42.9835 30.0439 43.7502 29.1017 43.7502C28.1594 43.7502 27.3927 42.9835 27.3927 42.0412V38.135C27.3927 37.7305 27.0648 37.4025 26.6603 37.4025C26.2558 37.4025 25.9278 37.7305 25.9278 38.135V41.3246C25.1088 41.4342 24.2775 41.4947 23.448 41.5031C19.574 41.5416 15.8151 40.4668 12.549 38.3903V35.6738C12.549 35.2693 12.221 34.9414 11.8165 34.9414C11.412 34.9414 11.0841 35.2693 11.0841 35.6738V38.7914V38.7955V44.7757C11.0841 45.7179 10.3174 46.4846 9.37514 46.4846C8.43286 46.4846 7.66616 45.7179 7.66616 44.7757V39.7611C7.66616 36.6278 6.88403 33.4439 5.40444 30.5538C5.22456 30.2024 5.05601 29.8474 4.8982 29.4891L6.41372 28.5696C6.93227 28.255 7.55923 28.1859 8.13403 28.3805L9.37455 28.8003C10.1289 29.0558 10.9517 28.9646 11.632 28.5504C12.3122 28.1363 12.771 27.4472 12.8906 26.6598L12.9744 26.1082C13.0589 25.5512 13.5093 25.1208 14.0696 25.0615C14.9971 24.9633 15.795 24.4042 16.2037 23.566C16.7413 22.4641 16.4657 21.1382 15.5333 20.3418C15.2203 20.0745 14.9221 19.784 14.6469 19.4783C14.3762 19.1778 13.9131 19.1534 13.6125 19.4242C13.3119 19.695 13.2877 20.158 13.5584 20.4586C13.8762 20.8115 14.2206 21.147 14.582 21.4556C15.0065 21.8182 15.1321 22.422 14.8872 22.9239C14.701 23.3056 14.3377 23.5602 13.9154 23.6049C12.6931 23.7343 11.7106 24.6733 11.526 25.8884L11.4422 26.44C11.3878 26.7979 11.1793 27.1111 10.8702 27.2993C10.5609 27.4875 10.1869 27.529 9.84399 27.4129L8.60356 26.9931C7.61821 26.6596 6.54302 26.7777 5.65376 27.3173L4.35152 28.1073C3.63433 26.0805 3.25513 23.9586 3.22466 21.7699C3.17593 18.2635 4.01646 14.8985 5.64351 11.9181L5.73374 12.7006C5.94507 14.5322 7.43139 15.9804 9.26772 16.1441C9.91078 16.1793 10.7186 16.5786 11.1501 17.1952L11.4697 17.6449C11.6125 17.8459 11.8382 17.9531 12.0673 17.9531C12.214 17.9531 12.3622 17.9091 12.491 17.8176C12.8206 17.5833 12.8981 17.126 12.6638 16.7963L12.3443 16.3467C11.7213 15.4448 10.5569 14.7686 9.39799 14.685C8.25014 14.5827 7.32114 13.6775 7.18901 12.5327L6.88833 9.92573C7.57065 8.96616 8.34331 8.05874 9.20239 7.21353C9.58949 6.83257 9.98949 6.47017 10.4005 6.12505L12.1139 6.79507C12.6725 7.01353 12.9929 7.61919 12.8593 8.20386L12.23 10.9576C12.0618 11.6937 12.2128 12.4712 12.6445 13.0908L14.5912 15.8854C15.0265 16.5102 15.741 16.8832 16.5026 16.8832C17.1643 16.8832 17.7969 16.6004 18.2382 16.1074C18.6795 15.6143 18.8907 14.9543 18.8177 14.2966L18.5589 11.9674C18.5047 11.4803 18.7457 11.0099 19.1728 10.7692L20.9492 9.76792C21.9126 9.22485 22.5728 8.28833 22.7603 7.19839L23.1083 5.17476C23.298 4.07184 22.9806 2.95934 22.2376 2.12252L21.7051 1.52272C22.4171 1.4695 23.1364 1.45231 23.8614 1.47428C25.4358 1.52174 26.9962 1.75075 28.4994 2.15485C28.8903 2.26032 29.2919 2.02838 29.3969 1.63776C29.502 1.24713 29.2704 0.845279 28.8798 0.740299C27.2669 0.306706 25.5934 0.0610035 23.9057 0.0101247C17.9803 -0.168391 12.3935 2.01881 8.17524 6.16929C6.12974 8.18179 4.53169 10.5378 3.42554 13.1719C2.27896 15.9022 1.71861 18.8018 1.76021 21.7901C1.80631 25.1043 2.59381 28.2774 4.10074 31.221C5.47505 33.9056 6.20151 36.8586 6.20151 39.7608V44.7754C6.20151 46.5254 7.62534 47.9492 9.37533 47.9492C11.1253 47.9492 12.5492 46.5254 12.5492 44.7754V40.1021C15.8038 41.9825 19.4708 42.9687 23.2449 42.9687C24.0218 42.9695 25.0555 42.9145 26.0182 42.7903C26.3559 44.1798 27.61 45.2148 29.1019 45.2148C30.8519 45.2148 32.2757 43.791 32.2757 42.041V40.6738C32.2757 39.7315 33.0424 38.9648 33.9847 38.9648C34.9269 38.9648 35.6936 39.7315 35.6936 40.6738V46.8261C35.6936 48.5761 37.1175 50 38.8675 50C40.6175 50 42.0413 48.5761 42.0413 46.8261V44.7764C42.0411 44.3722 41.7132 44.0442 41.3087 44.0442V44.0442ZM21.1421 3.09528C21.5879 3.59742 21.7783 4.2649 21.6646 4.92662L21.3165 6.95025C21.204 7.60425 20.8079 8.16616 20.2299 8.49204L18.4534 9.49331C17.514 10.0229 16.9839 11.0577 17.1031 12.1294L17.3618 14.4585C17.3894 14.7063 17.313 14.9449 17.1468 15.1306C16.9806 15.3162 16.7518 15.4186 16.5026 15.4186C16.2199 15.4186 15.9547 15.2802 15.7932 15.0483L13.8464 12.2537C13.6502 11.9721 13.5817 11.6186 13.658 11.284L14.2873 8.53042C14.5813 7.2441 13.8763 5.91158 12.6474 5.43101L11.7561 5.08248C14.2041 3.35807 16.9846 2.22057 19.9341 1.73473L21.1421 3.09528Z" fill="#80C9A7"/>
<path d="M27.5025 10.5235L25.1068 10.9838C23.9771 11.2008 23.1572 12.1932 23.1572 13.3435V13.3985C23.1572 14.3223 23.6967 15.1747 24.5315 15.5701L25.5339 16.0449C25.8605 16.1997 26.2118 16.2759 26.5618 16.2759C27.0527 16.2759 27.5409 16.1259 27.9543 15.8321L29.3478 14.8421C29.9226 14.4337 30.2877 13.7966 30.3496 13.0941C30.4115 12.3917 30.1633 11.7006 29.6688 11.1979C29.1034 10.6235 28.2937 10.3713 27.5025 10.5235V10.5235ZM28.8903 12.9656C28.8658 13.2438 28.727 13.4862 28.4992 13.648L27.1059 14.6381C26.8294 14.8345 26.4675 14.8663 26.1609 14.7212L25.1586 14.2464C24.8327 14.092 24.6221 13.7593 24.6221 13.3986V13.3436C24.6221 12.8945 24.9422 12.5071 25.3832 12.4224L27.779 11.9621C27.8383 11.9507 27.8978 11.9451 27.9568 11.9451C28.2056 11.9451 28.4463 12.0442 28.6246 12.2254C28.8204 12.4244 28.9148 12.6873 28.8903 12.9656V12.9656Z" fill="#80C9A7"/>
<path d="M22.2107 27.9132C21.4859 27.1499 20.4011 26.8341 19.3801 27.0896L16.2331 27.8763C15.1848 28.1384 14.3698 28.9523 14.106 30.0001L13.8921 30.8503C13.5924 32.041 14.075 33.3024 15.093 33.9891L16.2191 34.7486C16.4903 34.9316 16.6943 35.2039 16.7937 35.5155L17.2599 36.9775C17.6534 38.211 18.7801 39.0146 20.0373 39.0146C20.1874 39.0146 20.3393 39.0031 20.492 38.9796C21.7717 38.7824 22.7561 37.789 22.9415 36.5076L23.2559 34.3352C23.2942 34.0709 23.404 33.8223 23.5738 33.6161L23.8112 33.3277C24.7487 32.1892 24.6898 30.524 23.6743 29.4545L22.2107 27.9132ZM22.6802 32.3967L22.4428 32.685C22.1029 33.0979 21.8827 33.5959 21.806 34.1253L21.4916 36.2978C21.3991 36.9375 20.9077 37.4334 20.2689 37.5318C19.5538 37.6422 18.8752 37.2217 18.6554 36.5323L18.1892 35.0704C17.9901 34.4462 17.5814 33.9006 17.0381 33.5342L15.9121 32.7746C15.4038 32.4318 15.1629 31.8022 15.3125 31.2078L15.5265 30.3576C15.6581 29.8345 16.065 29.4282 16.5883 29.2974L19.7353 28.5107C19.8522 28.4815 19.9706 28.4672 20.0883 28.4672C20.4838 28.4672 20.8695 28.6281 21.1483 28.9218L22.6118 30.4631C23.1189 30.9971 23.1482 31.8283 22.6802 32.3967V32.3967Z" fill="#80C9A7"/>
<path d="M48.2422 22.7056C48.2422 21.0531 47.6376 19.4925 46.5332 18.2773V4.8833C46.5332 2.19092 44.3428 0.000488281 41.6504 0.000488281C38.9973 0.000488281 36.8331 2.12783 36.7705 4.76631C35.3715 3.6335 33.8393 2.6835 32.1973 1.93428C31.8293 1.7665 31.3948 1.92852 31.2269 2.29658C31.0589 2.66455 31.2211 3.09902 31.5892 3.26699C33.4864 4.13271 35.2268 5.28594 36.7675 6.6959V13.0893C36.0097 13.1966 35.296 13.5396 34.7366 14.0792L33.5573 15.2166C32.7743 15.9718 32.489 17.1272 32.8303 18.1602C33.0407 18.797 33.4712 19.3412 34.0426 19.6925L35.421 20.5401C35.1563 21.1379 34.3263 21.6194 33.5641 21.5663L30.4292 21.3397C29.4369 21.2678 28.4927 21.7462 27.9631 22.5873L26.3253 25.1882C25.674 26.2225 25.8035 27.5672 26.6402 28.4582L28.0755 29.9867C28.8707 30.8334 30.1456 31.0503 31.1761 30.5138C32.5012 29.7834 34.2977 29.7773 35.6623 30.5398L40.9748 33.4749C40.71 35.2778 40.576 37.086 40.576 38.8864V41.3591C40.576 41.7636 40.9039 42.0915 41.3084 42.0915C41.7129 42.0915 42.0408 41.7636 42.0408 41.3591V38.8864C42.0408 35.6113 42.502 32.3081 43.4093 29.0607C44.4454 28.7759 45.4009 28.2388 46.2024 27.4731C47.5179 26.2169 48.2422 24.5237 48.2422 22.7056V22.7056ZM34.81 18.4445C34.5325 18.2739 34.3234 18.0096 34.2212 17.7003C34.0554 17.1986 34.194 16.6375 34.5743 16.2708L35.7536 15.1334C36.0385 14.8587 36.3898 14.669 36.7676 14.5785V18.2772C36.5009 18.5704 36.265 18.8837 36.0585 19.2123L34.81 18.4445ZM41.2327 31.9435L36.371 29.2574C34.6349 28.2842 32.3213 28.2269 30.4997 29.2144C30.0489 29.4489 29.4912 29.354 29.1435 28.9838L27.7082 27.4554C27.3277 27.0502 27.2688 26.4388 27.565 25.9686L29.2028 23.3677C29.4436 22.9854 29.8724 22.7677 30.3238 22.8006L33.4587 23.0271C34.0158 23.0675 34.5639 22.9677 35.0607 22.7538C35.0615 26.1951 37.8835 29.1381 41.3404 29.2902C41.4439 29.2949 41.6215 29.2979 41.8293 29.2934C41.5987 30.1735 41.3998 31.0574 41.2327 31.9435ZM41.4075 27.827C38.7572 27.7051 36.6131 25.5314 36.5263 22.8782C36.4995 22.0616 36.661 21.273 36.9915 20.5581C36.9915 20.5581 36.9915 20.558 36.9916 20.558C37.2405 20.0193 37.5852 19.5222 38.0188 19.087C38.1557 18.9497 38.2325 18.7638 38.2325 18.57V4.8833C38.2325 2.99863 39.7658 1.46533 41.6505 1.46533C43.5352 1.46533 45.0685 2.99863 45.0685 4.8833V18.5699C45.0685 18.7637 45.1453 18.9496 45.282 19.0869C46.2464 20.0547 46.7774 21.3397 46.7774 22.7056C46.7774 24.1197 46.214 25.4366 45.191 26.4138C44.1686 27.3902 42.8254 27.8925 41.4075 27.827Z" fill="#80C9A7"/>
<path d="M44.1831 20.0613C43.8768 19.7681 43.7011 19.3591 43.7011 18.9392V4.98096C43.7011 3.8501 42.7812 2.93018 41.6504 2.93018C40.5195 2.93018 39.5996 3.8501 39.5996 4.98096V11.7619C39.5996 12.1664 39.9275 12.4943 40.332 12.4943C40.7365 12.4943 41.0644 12.1664 41.0644 11.7619V8.79375H42.2363V18.9393C42.2363 19.7566 42.5765 20.5513 43.17 21.1194C43.607 21.5379 43.8476 22.1012 43.8476 22.7057C43.8476 23.3187 43.6014 23.8876 43.1544 24.3075C42.7078 24.7271 42.1236 24.9372 41.5076 24.8984C40.4069 24.8296 39.5055 23.9117 39.4554 22.809C39.4269 22.1803 39.6686 21.5688 40.1184 21.1313C40.7196 20.5469 41.0644 19.7114 41.0644 18.8393V15.1799C41.0644 14.7754 40.7365 14.4475 40.332 14.4475C39.9275 14.4475 39.5996 14.7754 39.5996 15.1799V18.8393C39.5996 19.3181 39.4165 19.7707 39.0972 20.0811C38.3473 20.8103 37.9445 21.8287 37.9921 22.8754C38.0756 24.7147 39.5797 26.2455 41.4161 26.3605C42.2908 26.4279 43.4298 26.0852 44.1573 25.3753C44.8915 24.6856 45.3125 23.7126 45.3125 22.7058C45.3126 21.6979 44.9114 20.7588 44.1831 20.0613V20.0613ZM41.0645 7.32891V4.98096C41.0645 4.65781 41.3273 4.39502 41.6505 4.39502C41.9736 4.39502 42.2364 4.65781 42.2364 4.98096V7.32881H41.0645V7.32891Z" fill="#80C9A7"/>
</g>
<defs>
<clipPath id="clip0_1899_2106">
<rect width="50" height="50" fill="white"/>
</clipPath>
</defs>
</svg>
