<?xml version="1.0" encoding="utf-8"?>
<svg width="51" height="50" viewBox="0 0 51 50" fill="none" xmlns="http://www.w3.org/2000/svg">
<g clip-path="url(#clip0_1899_8303)">
<path d="M34.0299 9.97456C31.9134 7.6145 28.8093 6.22271 25.5134 6.15591C25.5035 6.15571 25.4936 6.15571 25.4839 6.15591C22.4855 6.21626 19.6812 7.34546 17.5874 9.3353C15.231 11.5746 13.9583 14.7216 13.9065 18.4368C13.877 20.6093 14.5085 21.7381 15.0656 22.734C15.5329 23.5694 15.9364 24.2908 15.9364 25.6402C15.9364 26.7688 16.8546 27.687 17.9832 27.687H19.064V28.1777C19.064 29.3946 19.8858 30.2444 21.0619 30.2444H29.9321C31.1087 30.2444 31.9304 29.3946 31.9304 28.1777V27.687H33.0112C34.1414 27.687 35.0608 26.7688 35.0608 25.6402C35.0608 24.2906 35.4638 23.5691 35.9305 22.7336C36.4868 21.7378 37.1173 20.6091 37.0879 18.4361C37.0591 16.4506 36.6833 14.6226 35.971 13.0027C35.8082 12.6324 35.376 12.4639 35.0057 12.627C34.6354 12.7898 34.4672 13.222 34.63 13.5922C35.263 15.0319 35.5971 16.6688 35.6231 18.4566C35.6472 20.237 35.1636 21.1027 34.6516 22.0192C34.1327 22.9484 33.5959 23.9091 33.5959 25.6401C33.5959 25.961 33.3335 26.222 33.0111 26.222H31.1979C30.7933 26.222 30.4655 26.5499 30.4655 26.9544V28.1776C30.4655 28.7794 30.064 28.7794 29.9315 28.7794L28.2895 28.7805V27.1226C28.2895 26.718 27.9617 26.3902 27.5571 26.3902C27.1525 26.3902 26.8247 26.718 26.8247 27.1226V28.7814L25.4991 28.7823L24.1697 28.7814V27.1226C24.1697 26.718 23.8418 26.3902 23.4373 26.3902C23.0328 26.3902 22.7049 26.718 22.7049 27.1226V28.7805L21.0624 28.7794C20.9304 28.7794 20.5289 28.7794 20.5289 28.1776V26.9544C20.5289 26.5499 20.2009 26.222 19.7965 26.222H17.9832C17.6623 26.222 17.4012 25.961 17.4012 25.6401C17.4012 23.9087 16.8637 22.948 16.3439 22.0188C15.8312 21.1023 15.347 20.2367 15.3712 18.4568C15.4728 11.1574 20.6892 7.72446 25.4985 7.62065C28.3846 7.68306 31.0959 8.89692 32.9391 10.9523C33.2091 11.2534 33.6721 11.2789 33.9734 11.0086C34.2747 10.7387 34.2999 10.2756 34.0299 9.97456V9.97456Z" fill="#80C9A7"/>
<path d="M23.4581 24.3204C23.7985 24.5388 24.2516 24.4398 24.47 24.0994L25.5371 22.436L26.6042 24.0994C26.7441 24.3174 26.9803 24.4364 27.2213 24.4364C27.3567 24.4364 27.4936 24.3989 27.6161 24.3204C27.9565 24.1021 28.0555 23.6489 27.8371 23.3085L26.5508 21.3034C26.4157 21.0935 26.0994 20.6016 25.5371 20.6016C24.9749 20.6016 24.6585 21.0934 24.5229 21.3041L23.2371 23.3084C23.0187 23.6489 23.1177 24.1021 23.4581 24.3204V24.3204Z" fill="#80C9A7"/>
<path d="M30.5332 20.7694C31.4123 20.7552 32.21 20.4228 32.7779 19.8352C33.3459 19.2508 33.6512 18.4484 33.6377 17.576C33.6226 16.61 33.2244 15.6795 32.5465 15.0245C31.6949 14.1968 30.2531 13.2383 28.9719 13.2383C28.9593 13.2383 28.9466 13.2384 28.934 13.2386C28.3545 13.2473 27.8494 13.457 27.473 13.8453C26.8636 14.474 26.6003 15.5848 26.7506 16.8925C26.8891 18.0968 27.3379 19.1707 27.9511 19.7649C28.6121 20.4057 29.5282 20.7699 30.4733 20.7699C30.4932 20.7699 30.5132 20.7698 30.5332 20.7694V20.7694ZM28.2059 16.7252C28.1103 15.8936 28.2356 15.1634 28.525 14.8647C28.5961 14.7915 28.7091 14.7069 28.9559 14.7032C28.9617 14.7031 28.9672 14.7031 28.9731 14.7031C29.7145 14.7031 30.8384 15.4069 31.5271 16.0764C31.9226 16.4587 32.164 17.0278 32.173 17.5989C32.1805 18.0794 32.0223 18.5109 31.7261 18.8157C31.4289 19.1231 30.9967 19.297 30.5093 19.3049C29.9372 19.3133 29.3625 19.0931 28.9706 18.7132C28.6097 18.3633 28.3024 17.5644 28.2059 16.7252V16.7252Z" fill="#80C9A7"/>
<path d="M23.5213 13.8455C23.1438 13.456 22.2776 12.8958 20.717 13.5185C19.9554 13.8226 19.1073 14.3853 18.4492 15.0232C17.7699 15.6797 17.3717 16.6102 17.3566 17.5762C17.343 18.4486 17.6483 19.2509 18.2149 19.8338C18.7843 20.4229 19.582 20.7554 20.461 20.7696C20.4812 20.77 20.501 20.7701 20.521 20.7701C21.466 20.7701 22.3824 20.4059 23.0425 19.7659C23.8744 18.9619 24.2658 17.4403 24.2847 16.2891C24.2968 15.5462 24.1742 14.5192 23.5213 13.8455V13.8455ZM22.82 16.2652C22.8041 17.2375 22.4621 18.2897 22.0237 18.7134C21.6318 19.0932 21.0569 19.3129 20.485 19.3051C19.9976 19.2972 19.5654 19.1234 19.2668 18.8144C18.9721 18.5112 18.8139 18.0797 18.8213 17.5992C18.8303 17.0281 19.0717 16.459 19.4681 16.076C19.8763 15.6803 20.5614 15.1581 21.2602 14.8792C21.4928 14.7863 21.7701 14.7027 22.015 14.7027C22.1938 14.7027 22.3552 14.7473 22.4694 14.865C22.6994 15.1022 22.8305 15.6258 22.82 16.2652V16.2652Z" fill="#80C9A7"/>
<path d="M50.4909 34.5927C50.4909 34.2833 50.4909 33.5589 49.9639 33.1746C49.4622 32.8087 48.8537 33.0043 48.6537 33.0685C45.8039 33.9832 43.0157 33.8721 40.3664 32.738C40.1702 32.6381 39.1285 32.1348 37.5302 31.8463C41.3109 28.5087 43.6998 23.629 43.6998 18.2013C43.6997 8.16514 35.5347 0 25.4987 0C21.0362 0 16.7445 1.629 13.4141 4.58701C13.1117 4.85566 13.0842 5.31855 13.3529 5.621C13.6214 5.92353 14.0844 5.95088 14.3869 5.68223C17.4489 2.9626 21.3951 1.46484 25.4987 1.46484C34.727 1.46484 42.2348 8.97285 42.2348 18.2015C42.2348 27.4301 34.727 34.9381 25.4987 34.9381C16.2704 34.9381 8.76255 27.4301 8.76255 18.2015C8.76255 14.4471 9.9772 10.8983 12.2751 7.93887C12.5233 7.61943 12.4654 7.15928 12.1458 6.91123C11.8264 6.66318 11.3663 6.721 11.1182 7.04053C8.6189 10.2593 7.2978 14.1187 7.2978 18.2015C7.2978 23.6297 9.68706 28.5096 13.4682 31.8473C11.8689 32.1363 10.8262 32.6392 10.6315 32.7381C7.98433 33.8714 5.19604 33.9825 2.34399 33.0687C2.14419 33.0045 1.53628 32.8092 1.0355 33.1743C0.572021 33.5123 0.509521 34.0811 0.509521 34.5934C0.510303 35.6625 0.509521 48.6375 0.509521 48.6375C0.509521 49.3888 1.12075 50 1.87202 50H49.1286C49.8798 50 50.4911 49.3888 50.4911 48.6375C50.4909 48.6375 50.49 35.6622 50.4909 34.5927V34.5927ZM1.97534 39.3486C7.10581 41.0924 11.1086 39.0238 11.2875 38.929C11.3278 38.9075 15.3697 36.8155 20.3361 38.9448C20.6127 39.0855 22.5918 40.0383 25.4455 40.0382C25.479 40.0381 25.5125 40.0381 25.5461 40.0382C28.4057 40.0381 30.3882 39.085 30.6639 38.9449C35.5983 36.8281 39.6709 38.9087 39.7102 38.9291C39.8361 38.996 41.8649 40.0455 44.8519 40.0453C46.0987 40.0452 47.5129 39.8618 49.0247 39.3482C49.0247 40.4292 49.0249 41.551 49.025 42.6713C44.2789 44.4975 40.4343 42.5362 40.3969 42.5165C40.2067 42.4155 35.6739 40.0697 30.061 42.4908C30.043 42.4985 30.0254 42.507 30.0082 42.5162C29.9903 42.5257 28.2068 43.4545 25.5408 43.4545C25.5112 43.4544 25.4809 43.4544 25.4513 43.4545C22.8142 43.4545 21.0084 42.5248 20.9921 42.5164C20.9748 42.5071 20.9569 42.4985 20.9388 42.4907C15.3233 40.0701 10.7905 42.4154 10.6005 42.5164C10.5614 42.537 6.74419 44.5098 1.97485 42.6715C1.97515 41.5512 1.97534 40.4295 1.97534 39.3486V39.3486ZM1.97563 34.4886C5.15552 35.4888 8.26987 35.3495 11.2335 34.0736C11.2505 34.0663 11.2691 34.0574 11.2855 34.0488C11.301 34.0407 12.8167 33.26 15.0932 33.1262C18.0443 35.19 21.6323 36.4028 25.4987 36.4028C29.3651 36.4028 32.9531 35.19 35.9042 33.1262C38.1812 33.2578 39.6956 34.0401 39.7094 34.0475C39.7273 34.0569 39.7454 34.0657 39.7639 34.0736C42.731 35.3508 45.8459 35.4899 49.0246 34.4877C49.0255 34.5188 49.0251 36.6245 49.0249 37.7901C44.2789 39.6161 40.4345 37.6549 40.3971 37.6353C40.2069 37.5343 35.6741 35.1887 30.0612 37.6096C30.0432 37.6173 30.0256 37.6258 30.0084 37.635C29.9905 37.6444 28.2065 38.5733 25.5407 38.5733C25.511 38.5733 25.4816 38.5733 25.4519 38.5733C22.8147 38.5733 21.0086 37.6436 20.9923 37.6352C20.975 37.6259 20.9571 37.6173 20.939 37.6095C15.3232 35.1888 10.7906 37.5342 10.6007 37.6352C10.5615 37.6558 6.74458 39.6283 1.97534 37.7903C1.97524 36.6247 1.97485 35.5383 1.97417 34.5927C1.97407 34.5543 1.97466 34.5196 1.97563 34.4886V34.4886ZM1.97407 48.5352L1.97466 44.2296C7.10562 45.9738 11.1086 43.9049 11.2875 43.8103C11.3278 43.7888 15.3697 41.6968 20.3361 43.8261C20.6125 43.9666 22.5917 44.9193 25.4451 44.9193C25.479 44.9194 25.5127 44.9194 25.5466 44.9193C28.4057 44.9192 30.388 43.9663 30.664 43.8262C35.5984 41.7094 39.6709 43.7898 39.7103 43.8104C39.8362 43.8772 41.865 44.9268 44.852 44.9266C46.099 44.9265 47.5134 44.7431 49.0255 44.2292L49.026 48.5352H1.97407Z" fill="#80C9A7"/>
</g>
<defs>
<clipPath id="clip0_1899_8303">
<rect width="50" height="50" fill="white" transform="translate(0.5)"/>
</clipPath>
</defs>
</svg>
