<?xml version="1.0" encoding="utf-8"?>
<svg width="51" height="50" viewBox="0 0 51 50" fill="none" xmlns="http://www.w3.org/2000/svg">
<g clip-path="url(#clip0_1899_2688)">
<path d="M44.6048 5.14023C45.0205 5.14023 45.3575 4.80322 45.3575 4.3875C45.3575 3.97178 45.0205 3.63477 44.6048 3.63477C44.1891 3.63477 43.8521 3.97178 43.8521 4.3875C43.8521 4.80322 44.1891 5.14023 44.6048 5.14023Z" fill="#80C9A7"/>
<path d="M45.3577 11.5164C45.3577 11.1007 45.0207 10.7637 44.605 10.7637C44.1893 10.7637 43.8523 11.1007 43.8523 11.5164C43.8523 11.932 44.1893 12.269 44.605 12.269C45.0207 12.269 45.3577 11.932 45.3577 11.5164Z" fill="#80C9A7"/>
<path d="M50.0472 10.652V5.19297C50.0472 2.32949 47.7177 0 44.8542 0H41.9275C41.066 0 40.3651 0.700879 40.3651 1.5625V5.23164L10.4515 9.17061C10.0504 9.22344 9.76806 9.59141 9.82089 9.99238C9.86943 10.361 10.1842 10.6293 10.5462 10.6293C10.578 10.6293 10.6102 10.6272 10.6427 10.6229L40.3651 6.70908V9.61191L3.99404 14.4014C3.23925 14.5014 2.54443 13.9677 2.44501 13.2129L2.42978 13.097C2.33036 12.3423 2.86357 11.6474 3.61826 11.5479L7.43261 11.0457C7.83368 10.9929 8.11591 10.6249 8.06308 10.2239C8.01025 9.82285 7.64218 9.54063 7.2414 9.59336L3.42704 10.0956C1.87148 10.3005 0.77265 11.7326 0.977435 13.2882L0.99267 13.4041C1.1791 14.8194 2.38144 15.856 3.76835 15.8772V49.2676C3.76835 49.6721 4.09628 50 4.50077 50C4.90527 50 5.2332 49.6721 5.2332 49.2676V15.7157L19.9291 13.7806L14.9207 44.215H13.1684C12.4381 44.215 11.844 44.8091 11.844 45.5394V48.5754C11.844 49.3057 12.4381 49.8997 13.1684 49.8997H23.9234C24.3279 49.8997 24.6559 49.5718 24.6559 49.1673C24.6559 48.7628 24.3279 48.4349 23.9234 48.4349H13.3089V45.6799H36.095V48.4349H26.853C26.4485 48.4349 26.1206 48.7628 26.1206 49.1673C26.1206 49.5718 26.4485 49.8997 26.853 49.8997H36.2355C36.9658 49.8997 37.5599 49.3057 37.5599 48.5754V45.5394C37.5599 44.8091 36.9658 44.215 36.2355 44.215H34.4832L29.2725 12.5502L40.3651 11.0896V14.2825C40.3651 15.144 41.066 15.845 41.9275 15.845H43.7547V28.4146H41.1925C40.4577 28.4146 39.8599 29.0123 39.8599 29.7471V32.7744C39.8599 33.5092 40.4578 34.107 41.1925 34.107H47.5847C48.3194 34.107 48.9173 33.5092 48.9173 32.7744V29.7471C48.9173 29.0123 48.3194 28.4146 47.5847 28.4146H45.2195V15.8306C47.913 15.6423 50.0472 13.3924 50.0472 10.652V10.652ZM19.6257 24.6453L23.6183 28.4112L18.1585 33.5609L19.6257 24.6453ZM20.6454 23.5935H28.7261L24.6857 27.4043L20.6454 23.5935ZM24.6857 29.418L30.6489 35.0425H18.7226L24.6857 29.418ZM30.9417 36.5073L24.7008 43.8205L18.4323 36.5073H30.9417ZM25.7531 28.4112L29.7739 24.6187L31.2515 33.5974L25.7531 28.4112ZM29.1487 20.8194L25.7531 17.6166L28.2362 15.2745L29.1487 20.8194ZM28.4019 22.1286H20.9695L24.6857 18.6233L28.4019 22.1286ZM20.2612 20.783L21.1634 15.301L23.6183 17.6165L20.2612 20.783ZM17.4851 37.653L23.1096 44.2149H16.4052L17.4851 37.653ZM26.2899 44.215L31.9142 37.6244L32.9988 44.215H26.2899ZM27.9494 13.5313L24.6857 16.6098L21.471 13.5775L27.8195 12.7415L27.9494 13.5313ZM47.4524 32.6421H41.3248V29.8793H47.4524V32.6421ZM41.83 14.2824V1.5625C41.83 1.50869 41.8737 1.46484 41.9275 1.46484H44.8542C46.9099 1.46484 48.5823 3.13721 48.5823 5.19297V10.652C48.5823 12.7076 46.9099 14.3801 44.8542 14.3801H41.9275C41.8738 14.3801 41.83 14.3363 41.83 14.2824Z" fill="#80C9A7"/>
</g>
<defs>
<clipPath id="clip0_1899_2688">
<rect width="50" height="50" fill="white" transform="translate(0.5)"/>
</clipPath>
</defs>
</svg>
